<?xml version="1.0" encoding="UTF-8" standalone="no"?>
<!DOCTYPE svg PUBLIC "-//W3C//DTD SVG 1.1//EN" "http://www.w3.org/Graphics/SVG/1.1/DTD/svg11.dtd">
<svg xmlns="http://www.w3.org/2000/svg" version="1.1" viewBox="0.00 0.00 100.00 100.00">
<path fill="#000000" d="
  M 95.97 50.00
  A 45.97 45.97 0.0 0 1 50.00 95.97
  A 45.97 45.97 0.0 0 1 4.03 50.00
  A 45.97 45.97 0.0 0 1 50.00 4.03
  A 45.97 45.97 0.0 0 1 95.97 50.00
  Z
  M 43.71 47.59
  A 0.39 0.39 0.0 0 1 43.32 47.20
  L 43.32 36.44
  A 0.39 0.39 0.0 0 1 43.71 36.05
  L 60.79 36.05
  A 0.39 0.39 0.0 0 0 61.18 35.66
  L 61.17 32.39
  A 0.39 0.39 0.0 0 0 60.78 32.00
  L 39.22 32.00
  A 0.39 0.39 0.0 0 0 38.83 32.39
  L 38.83 67.61
  A 0.39 0.39 0.0 0 0 39.22 68.00
  L 60.80 68.00
  A 0.39 0.39 0.0 0 0 61.19 67.61
  L 61.15 64.35
  A 0.39 0.39 0.0 0 0 60.76 63.96
  L 43.71 63.95
  A 0.39 0.39 0.0 0 1 43.32 63.56
  L 43.32 51.98
  A 0.39 0.39 0.0 0 1 43.71 51.59
  L 59.85 51.58
  A 0.39 0.39 0.0 0 0 60.24 51.19
  L 60.24 47.97
  A 0.39 0.39 0.0 0 0 59.85 47.58
  L 43.71 47.59
  Z"
/>
</svg>
