<?xml version="1.0" encoding="UTF-8" standalone="no"?>
<!DOCTYPE svg PUBLIC "-//W3C//DTD SVG 1.1//EN" "http://www.w3.org/Graphics/SVG/1.1/DTD/svg11.dtd">
<svg xmlns="http://www.w3.org/2000/svg" version="1.1" viewBox="0.00 0.00 100.00 100.00">
<path fill="#000000" d="
  M 95.97 50.00
  A 45.97 45.97 0.0 0 1 50.00 95.97
  A 45.97 45.97 0.0 0 1 4.03 50.00
  A 45.97 45.97 0.0 0 1 50.00 4.03
  A 45.97 45.97 0.0 0 1 95.97 50.00
  Z
  M 62.95 41.22
  A 0.30 0.30 0.0 0 1 63.53 41.33
  L 63.52 67.69
  A 0.30 0.30 0.0 0 0 63.82 67.99
  L 67.44 67.99
  A 0.30 0.30 0.0 0 0 67.74 67.69
  L 67.75 32.30
  A 0.30 0.30 0.0 0 0 67.45 32.00
  L 62.72 32.00
  A 0.30 0.30 0.0 0 0 62.44 32.19
  L 50.28 61.60
  A 0.30 0.30 0.0 0 1 49.72 61.60
  L 37.55 32.19
  A 0.30 0.30 0.0 0 0 37.27 32.00
  L 32.55 32.00
  A 0.30 0.30 0.0 0 0 32.25 32.30
  L 32.25 67.69
  A 0.30 0.30 0.0 0 0 32.55 67.99
  L 36.17 67.99
  A 0.30 0.30 0.0 0 0 36.47 67.69
  L 36.47 41.34
  A 0.30 0.30 0.0 0 1 37.05 41.22
  L 48.02 67.57
  A 0.30 0.30 0.0 0 0 48.30 67.75
  L 51.70 67.75
  A 0.30 0.30 0.0 0 0 51.98 67.57
  L 62.95 41.22
  Z"
/>
</svg>
